<svg width="164" height="164" viewBox="0 0 164 164" fill="none" xmlns="http://www.w3.org/2000/svg">
    <path
        d="M39.64 128V38.4H57.432C66.648 38.4 73.816 40.32 78.936 44.16C84.056 48 86.616 53.3333 86.616 60.16C86.616 65.1947 85.1227 69.504 82.136 73.088C79.1493 76.5867 74.968 78.976 69.592 80.256V81.024C76.9307 81.9627 82.648 84.5227 86.744 88.704C90.9253 92.8 93.016 98.0053 93.016 104.32C93.016 111.744 90.1573 117.547 84.44 121.728C78.7227 125.909 70.7013 128 60.376 128H39.64ZM57.56 41.472H48.344V79.872H57.432C70.9147 79.872 77.656 73.472 77.656 60.672C77.656 47.872 70.9573 41.472 57.56 41.472ZM60.376 82.944H48.344V124.928H60.376C75.992 124.928 83.8 117.931 83.8 103.936C83.8 89.9413 75.992 82.944 60.376 82.944Z"
        fill="#7F5610" />
    <path
        d="M81.082 122.184L81.85 114.504H82.618C85.946 117.405 89.7007 119.667 93.882 121.288C98.0633 122.909 102.202 123.72 106.298 123.72C112.101 123.72 116.794 122.141 120.378 118.984C123.962 115.741 125.754 111.432 125.754 106.056C125.754 103.069 125.071 100.296 123.706 97.736C122.426 95.176 120.25 92.5733 117.178 89.928C114.191 87.2827 110.053 84.424 104.762 81.352C101.093 79.2187 97.594 77 94.266 74.696C90.938 72.3067 88.2073 69.576 86.074 66.504C83.9407 63.3467 82.874 59.592 82.874 55.24C82.874 48.7547 85.2207 43.5493 89.914 39.624C94.6073 35.6133 100.794 33.608 108.474 33.608C111.887 33.608 115.557 33.992 119.482 34.76C123.407 35.4427 126.437 36.3387 128.57 37.448L127.93 44.616H127.162C122.298 39.3253 116.069 36.68 108.474 36.68C103.013 36.68 98.618 38.088 95.29 40.904C91.962 43.6347 90.298 47.3467 90.298 52.04C90.298 55.5387 91.194 58.568 92.986 61.128C94.8633 63.6027 97.2527 65.864 100.154 67.912C103.055 69.8747 106.17 71.7947 109.498 73.672C113.338 75.8907 117.05 78.2373 120.634 80.712C124.303 83.1867 127.29 86.1733 129.594 89.672C131.983 93.0853 133.178 97.3947 133.178 102.6C133.178 107.379 132.069 111.603 129.85 115.272C127.631 118.856 124.474 121.672 120.378 123.72C116.367 125.768 111.674 126.792 106.298 126.792C102.885 126.792 98.874 126.365 94.266 125.512C89.658 124.659 85.2633 123.549 81.082 122.184Z"
        fill="#7F5610" />
</svg>
